<?xml version="1.0" encoding="utf-8"?>
<!-- Generator: Adobe Illustrator 21.0.0, SVG Export Plug-In . SVG Version: 6.00 Build 0)  -->
<svg version="1.1" id="Layer_1" xmlns="http://www.w3.org/2000/svg" xmlns:xlink="http://www.w3.org/1999/xlink" x="0px" y="0px"
	 viewBox="0 0 136 77" style="enable-background:new 0 0 136 77;" xml:space="preserve">
<style type="text/css">
	.st0{fill:#FFFFFF;}
</style>
<path class="st0" d="M99.4,10c-1.7,0-3-1.3-3-3c0-1.7,1.3-3,3-3c1.7,0,3,1.4,3,3C102.3,8.6,101,10,99.4,10L99.4,10z"/>
<g>
	<path class="st0" d="M15.5,31.8c0,4.3,0,4.5,3.1,4.9V38H8.5v-1.3c3.1-0.4,3.1-0.6,3.1-4.9v-9.7c-0.1-2.4-0.2-3.3-2.9-3.3v-1.1
		l6.9-2.7v4.5c1.8-2.3,4.5-4.2,7.5-4.2c2.6,0,4.5,1.8,5.4,4.2c2.2-2.1,4.5-4.2,7.7-4.2c2,0,3.8,0.7,4.8,2.5c1,1.7,1,4.2,1,6.2v7.7
		c0,4.3,0,4.5,3,4.9V38H34.9v-1.3C38,36.3,38,36,38,31.8v-8.1c0-2.4,0-5.9-3.3-5.9c-2.3,0-4.4,1.7-5.9,3.3v10.7c0,4.3,0,4.5,3.1,4.9
		V38H21.7v-1.3c3-0.4,3-0.6,3-4.9v-8.1c0-2.4-0.1-5.9-3.4-5.9c-2.4,0-4.4,1.7-5.8,3.3V31.8L15.5,31.8z"/>
	<path class="st0" d="M62.4,23.8c0.3-3.1-1.1-7-5-7c-3.9,0-5.4,3.9-5.5,7H62.4L62.4,23.8z M51.7,25.5c0,4.4,1.3,11,7,11
		c3,0,5.7-1.7,7.4-4.1l0.8,0.7c-1.9,3.1-5.1,5.3-8.8,5.3c-6.3,0-11-5.2-11-11.4c0-5.8,4-11.8,10.4-11.8c5.7,0,9.6,4.8,9.6,10.2H51.7
		L51.7,25.5z"/>
	<path class="st0" d="M85.1,20.2c-1.2-1.3-3.2-2.9-5-2.9c-4.4,0-5.7,6.2-5.7,9.6c0,3.5,1.1,9.6,5.7,9.6c1.9,0,3.8-1.5,5-2.8V20.2
		L85.1,20.2z M85.1,11.1c0-3.9-0.6-3.8-3.9-4V5.8l7.8-2.6v28.5c0,4.3,0,4.5,3.1,4.9V38h-7.1v-2.6c-1.7,1.7-3.9,3.1-6.2,3.1
		c-6.1,0-8.8-6.2-8.8-11.4c0-8.8,5.2-11.7,8.5-11.7c2.6,0,4.7,1.4,6.5,2.9V11.1L85.1,11.1z"/>
	<path class="st0" d="M119.3,26.1c-3.2,0.5-8.2,2.7-8.2,6.5c0,2.1,1.5,3.5,3.3,3.5c1.7,0,3.8-1.3,4.9-2.6V26.1L119.3,26.1z
		 M119.3,21.6c0-2.2-0.5-4.8-3.2-4.8c-2.3,0-3.2,1.5-3.7,3.4c-0.4,1.4-1,2.3-2.6,2.3c-1.3,0-2.1-0.8-2.1-2c0-3.8,5.3-5.2,8.2-5.2
		c1.9,0,4.2,0.3,5.7,1.6c1.6,1.4,1.6,3.3,1.6,5.2v10.3c0,1.1,0,3.1,1.4,3.1c0.8,0,1.3-0.5,1.9-1.1l0.6,1c-1.1,1.7-2.5,3.2-4.6,3.2
		c-1.9,0-2.9-1.4-3.1-3.2c-2.1,1.7-4.5,3.2-7.2,3.2c-3.2,0-5.3-2.2-5.3-5.4c0-6,7.9-7.6,12.5-8.5V21.6L119.3,21.6z"/>
	<path class="st0" d="M121.7,70.9c-2.2,0-4.8-0.8-6.4-2.4l1.4-1.9c1.3,1,2.8,2,5,2c2.3,0,4-1.2,4-3.8c0-2.9-3.4-4.7-5.3-6.1
		c-1.9-1.5-4-2.9-4-6.1c0-3.1,3-5.4,6.5-5.4c2.4,0,4.4,0.8,5.7,2.3l-1.5,1.6c-1.1-0.8-2.6-1.6-4-1.6c-2.3,0-3.6,1.3-3.6,3.1
		c0,1.6,1.4,2.8,4.4,5c3.1,2.3,5,4.4,5,7.3C128.8,68.6,125.4,70.9,121.7,70.9L121.7,70.9z M110.8,70.5h-3.2V47.6h3.2V70.5
		L110.8,70.5z M96.1,70.9c-2.2,0-4.8-0.8-6.4-2.4l1.4-1.9c1.3,1,2.8,2,5,2c2.3,0,4-1.2,4-3.8c0-2.9-3.4-4.7-5.3-6.1
		c-1.9-1.5-4-2.9-4-6.1c0-3.1,3-5.4,6.5-5.4c2.4,0,4.4,0.8,5.7,2.3l-1.5,1.6c-1.1-0.8-2.6-1.6-4-1.6c-2.3,0-3.6,1.3-3.6,3.1
		c0,1.6,1.4,2.8,4.4,5c3.1,2.3,5,4.4,5,7.3C103.2,68.6,99.7,70.9,96.1,70.9L96.1,70.9z M87.1,70.5H74.4V47.6h11.3v2.3h-8.1v7.4h7.9
		v2.3h-7.9v8.6h9.5V70.5L87.1,70.5z M68.9,70.5h-2.5c-5-5.9-13.5-16.2-14.9-18.2h-0.1v18.2h-2.6V47.6h2.4c5,6,13.5,16,15,18.2h0.1
		V47.6h2.6V70.5L68.9,70.5z M45.3,70.5H32.6V47.6h11.3v2.3h-8.1v7.4h8v2.3h-8v8.6h9.5V70.5L45.3,70.5z M27.5,69.4
		c-2.2,0.8-5,1.5-7.9,1.5c-8.1,0-12.3-5.6-12.3-11.9c0-5.8,4.5-11.8,12.8-11.8c3.3,0,6,1.1,7.3,2.2L26,51.4c-1.4-0.9-3.5-1.8-6-1.8
		c-5.9,0-9.3,4.1-9.3,9.4c0,5.8,4,9.7,8.9,9.7c1.9,0,3.4-0.2,4.6-0.8v-7.8h3.2V69.4L27.5,69.4z M3.6,43.3v31.9h130V43.3H3.6
		L3.6,43.3z"/>
	<path class="st0" d="M102,31.8c0,4.3,0,4.5,3.1,4.9V38H95v-1.4c3.1-0.4,3.1-0.7,3.1-4.9V22c-0.1-2.4-0.2-3.3-2.9-3.3v-1.1L102,15
		V31.8L102,31.8z"/>
</g>
</svg>
